<svg width="22" height="28" viewBox="0 0 22 28" fill="none" xmlns="http://www.w3.org/2000/svg">
<path d="M2.42702 8.515C2.04602 6.003 3.82002 3.741 6.53002 2.911C7.01119 2.76372 7.53042 2.80557 7.98179 3.02801C8.43317 3.25044 8.78267 3.6367 8.95902 4.108L9.82802 6.428C9.96774 6.80119 9.99279 7.2076 9.89996 7.59513C9.80713 7.98265 9.60066 8.33361 9.30702 8.60299L6.72202 10.974C6.59453 11.0911 6.49953 11.2392 6.44626 11.404C6.39299 11.5687 6.38326 11.7444 6.41802 11.914L6.44102 12.018L6.50502 12.279C6.56202 12.499 6.64802 12.809 6.76902 13.179C7.00902 13.914 7.39202 14.902 7.96202 15.889C8.53202 16.876 9.19602 17.702 9.71202 18.277C9.98076 18.5764 10.2617 18.8646 10.554 19.141L10.634 19.215C10.7633 19.3295 10.9201 19.4086 11.089 19.4445C11.2579 19.4804 11.4333 19.472 11.598 19.42L14.944 18.367C15.3242 18.2475 15.7314 18.2443 16.1134 18.3578C16.4954 18.4713 16.8348 18.6963 17.088 19.004L18.671 20.926C19.331 21.726 19.253 22.902 18.494 23.609C16.42 25.542 13.568 25.939 11.584 24.343C9.15217 22.3816 7.10203 19.9894 5.53602 17.286C3.95707 14.5843 2.90227 11.6089 2.42702 8.516V8.515ZM8.51302 12.045L10.659 10.077C11.2463 9.53823 11.6592 8.83631 11.8449 8.06126C12.0306 7.28621 11.9805 6.47338 11.701 5.727L10.831 3.407C10.4761 2.45912 9.77303 1.68229 8.86515 1.23486C7.95728 0.787423 6.91294 0.703071 5.94502 0.998996C2.58002 2.029 -0.121981 5.04599 0.450019 8.81499C0.963017 12.157 2.10194 15.3722 3.80702 18.292C5.49609 21.2073 7.70725 23.787 10.33 25.902C13.305 28.292 17.279 27.477 19.858 25.072C20.596 24.3842 21.0437 23.4408 21.1101 22.4342C21.1764 21.4277 20.8563 20.4337 20.215 19.655L18.632 17.733C18.1255 17.1174 17.4465 16.6672 16.6823 16.4402C15.9181 16.2132 15.1035 16.2198 14.343 16.459L11.566 17.333C11.4417 17.2052 11.32 17.0748 11.201 16.942C10.6303 16.3106 10.1254 15.6227 9.69402 14.889C9.27411 14.1485 8.93067 13.3671 8.66902 12.557C8.61353 12.3874 8.56152 12.2167 8.51302 12.045Z" fill="#D61111"/>
</svg>
